PathFileType	3	(X/Y/Z)	F:\ViconData\AntennenMessung\Messung1\Session1\ID09.trc
DataRate	CameraRate	NumFrames	NumMarkers	Units	OrigDataRate	OrigDataStartFrame	OrigNumFrames
120.0	120.0	6	70	mm	120.0	542	1082	
Frame#	Time	Ashort			Along			Atop			A4			Bshort			Blong			Btop			B4			Cshort			Clong			Ctop			C4			Dshort			Dlong			Dtop			D4			Eshort			Elong			Etop			E4			Fshort			Flong			Ftop			F4			Gshort			Glong			Gtop			G4			Hshort			Hlong			Htop			H4			I1			I2			I3			I4			I5			WandAshort			WandAlong			WandAtop			WandA4			WandA15			WandBshort			WandB4			WandB5			WandBtop			WandBlong			WandCshort			WandClong			WandCtop			WandC4			WandC5			Acenter			Aantenna			Bcenter			Bantenna			Ccenter			Cantenna			Dcenter			Dantenna			Ecenter			Eantenna			Fcenter			Fantenna			Gcenter			Gantenna			Hcenter			Hantenna			Icenter			Iantenna			
		X1	Y1	Z1	X2	Y2	Z2	X3	Y3	Z3	X4	Y4	Z4	X5	Y5	Z5	X6	Y6	Z6	X7	Y7	Z7	X8	Y8	Z8	X9	Y9	Z9	X10	Y10	Z10	X11	Y11	Z11	X12	Y12	Z12	X13	Y13	Z13	X14	Y14	Z14	X15	Y15	Z15	X16	Y16	Z16	X17	Y17	Z17	X18	Y18	Z18	X19	Y19	Z19	X20	Y20	Z20	X21	Y21	Z21	X22	Y22	Z22	X23	Y23	Z23	X24	Y24	Z24	X25	Y25	Z25	X26	Y26	Z26	X27	Y27	Z27	X28	Y28	Z28	X29	Y29	Z29	X30	Y30	Z30	X31	Y31	Z31	X32	Y32	Z32	X33	Y33	Z33	X34	Y34	Z34	X35	Y35	Z35	X36	Y36	Z36	X37	Y37	Z37	X38	Y38	Z38	X39	Y39	Z39	X40	Y40	Z40	X41	Y41	Z41	X42	Y42	Z42	X43	Y43	Z43	X44	Y44	Z44	X45	Y45	Z45	X46	Y46	Z46	X47	Y47	Z47	X48	Y48	Z48	X49	Y49	Z49	X50	Y50	Z50	X51	Y51	Z51	X52	Y52	Z52	X53	Y53	Z53	X54	Y54	Z54	X55	Y55	Z55	X56	Y56	Z56	X57	Y57	Z57	X58	Y58	Z58	X59	Y59	Z59	X60	Y60	Z60	X61	Y61	Z61	X62	Y62	Z62	X63	Y63	Z63	X64	Y64	Z64	X65	Y65	Z65	X66	Y66	Z66	X67	Y67	Z67	X68	Y68	Z68	X69	Y69	Z69	X70	Y70	Z70	
542	4.5083333	-1038.1869	214.45688	-1644.2336	-1109.3683	203.92213	-1599.3783	-1063.6534	172.15233	-1625.4583	-1054.1497	262.19934	-1634.9039	-1352.8091	235.33427	1004.1031	-1281.3125	227.10793	1052.7759	-1322.9774	193.91428	1020.9789	-1284.6198	288.14951	1052.2361	814.1947	187.50047	1209.5718	892.57794	179.13336	1178.7946	844.30194	145.69907	1198.2961	860.63843	292.85776	1167.6545	1115.7709	209.86847	-1401.7111	1056.1536	194.18648	-1460.1624	1094.988	162.32059	-1423.892	1069.842	238.75102	-1425.8101	-1204.6031	1686.0419	-1563.0856	-1129.1178	1688.2645	-1605.998	-1173.1492	1724.4114	-1581.9366	-1134.0514	1581.042	-1603.7501	-1239.7949	1699.4099	1119.5094	-1309.4081	1698.9077	1071.9729	-1270.5222	1736.4342	1096.9305	-1244.8851	1594.0858	1106.2408	988.88013	1664.2473	1162.3168	955.87415	1702.3038	1181.1573	922.77118	1662.2089	1215.0863	939.77057	1659.4636	1159.9387	999.13013	1668.4987	-1579.3528	1058.8958	1670.1672	-1518.5875	1025.0105	1708.0524	-1551.0857	1059.274	1672.2074	-1585.4922	410.96188	1606.3542	-23.986467	411.43512	1608.042	-108.10033	413.43359	1644.0327	-60.896084	444.16901	1605.0961	-61.061512	363.36365	1610.3391	-61.431892																																														-1068.8839	209.91376	-1624.8898	-1074.2343	248.54063	-1624.3083	-1321.6	231.74338	1025.3491	-1320.1903	270.46036	1029.822	847.65192	183.92905	1196.4346	851.05231	222.73454	1194.5452	1088.665	202.73845	-1428.2866	1082.6716	241.04938	-1432.4523	-1171.9	1687.0046	-1581.6768	-1170.5985	1648.0273	-1581.4061	-1271.0823	1699.1842	1098.1442	-1271.6682	1660.2092	1099.4141	953.52405	1705.0134	1182.4988	972.87891	1731.9532	1161.9894	1026.5197	1669.2632	-1551.505	1028.0358	1630.2949	-1551.9261	411.1738	1607.1097	-61.649651	408.79181	1568.1907	-62.443962
543	4.5166667	-1038.2123	214.50304	-1644.1724	-1109.3319	203.88553	-1599.3934	-1063.6573	172.24124	-1625.5604	-1054.1678	262.21539	-1634.9038	-1352.7089	235.36382	1004.1106	-1281.3331	227.11	1052.7822	-1322.9614	193.89905	1020.9546	-1284.7131	288.13205	1052.3372	814.19727	187.50397	1209.4911	892.63617	179.248	1178.6471	844.22003	145.73611	1198.2113	860.69977	292.76291	1167.5768	1115.7373	209.59888	-1401.5583	1056.1715	194.15518	-1460.1637	1095.0103	162.36229	-1423.8546	1069.842	238.76692	-1425.8251	-1204.6058	1686.0276	-1563.0797	-1129.1437	1688.2775	-1606.0271	-1173.1425	1724.4353	-1581.9485	-1134.0457	1581.0352	-1603.7562	-1239.7769	1699.3789	1119.5129	-1309.3982	1698.903	1071.9573	-1270.5011	1736.4139	1096.9353	-1245.0485	1593.6052	1106.5261	988.86383	1664.2311	1162.3209	955.87799	1702.3134	1181.1744	922.73029	1662.1075	1215.0468	939.84521	1659.4323	1159.9197	999.13171	1668.4941	-1579.3566	1058.8944	1670.1644	-1518.5975	1025.0129	1708.0347	-1551.0649	1059.276	1672.2083	-1585.4976	410.97592	1606.366	-23.982183	411.43564	1608.0341	-108.0901	413.43701	1644.0497	-60.889957	444.13989	1605.0758	-61.054466	363.33719	1610.3586	-61.449238																																														-1068.8547	209.92839	-1624.879	-1074.1818	248.55653	-1624.1805	-1321.5742	231.76344	1025.3413	-1320.1559	270.47867	1029.8268	847.52856	183.99571	1196.3843	850.88483	222.80681	1194.5311	1088.7572	202.60371	-1428.1034	1082.8013	240.93318	-1432.1505	-1171.8857	1687.0031	-1581.7014	-1170.5773	1648.0259	-1581.4441	-1271.0685	1699.165	1098.1387	-1271.6621	1660.1897	1099.3979	953.58807	1704.957	1182.4832	972.98688	1731.8943	1162.012	1026.5352	1669.2599	-1551.4961	1028.0648	1630.2924	-1551.9294	411.18173	1607.1127	-61.634842	408.80536	1568.193	-62.419712
544	4.525	-1038.2147	214.49844	-1644.1602	-1109.3004	204.00021	-1599.4259	-1063.5789	172.75929	-1625.8439	-1054.1688	262.22208	-1634.9021	-1352.7904	235.23013	1004.1572	-1281.2798	227.10358	1052.7111	-1322.903	194.02345	1020.8721	-1284.77	288.00543	1052.3561	814.24329	187.41737	1209.5685	892.61719	179.20583	1178.6676	844.30457	145.73441	1198.2198	860.51971	292.88809	1167.4839	1115.7288	209.58908	-1401.5715	1056.1584	194.15251	-1460.1871	1094.9769	162.30121	-1423.8136	1069.8302	238.77477	-1425.8079	-1204.6034	1686.0372	-1563.0714	-1129.1272	1688.3403	-1606.2469	-1173.1421	1724.4115	-1581.9364	-1134.0416	1581.0493	-1603.781	-1239.7589	1699.3718	1119.5144	-1309.3923	1698.8905	1071.9614	-1270.4856	1736.3823	1096.9139	-1244.9437	1593.8418	1106.266	988.89178	1664.2874	1162.3146	955.90833	1702.3342	1181.2024	922.72168	1662.1362	1215.0945	939.76556	1659.4174	1159.951	999.13385	1668.4944	-1579.3492	1058.8978	1670.172	-1518.5979	1025.0187	1708.0441	-1551.0829	1059.2695	1672.1908	-1585.4919	410.97232	1606.3501	-23.972055	411.44171	1608.0419	-108.07951	413.44382	1644.0345	-60.879341	444.16797	1605.0999	-61.042202	363.36011	1610.3369	-61.431129																																														-1068.5813	210.01376	-1625.0503	-1073.7705	248.65822	-1624.2272	-1321.6359	231.68968	1025.3103	-1320.3337	270.40015	1029.8715	847.59546	183.92291	1196.4186	850.94019	222.73605	1194.5876	1088.7598	202.60057	-1428.1082	1082.8462	240.93257	-1432.193	-1171.9086	1687.0347	-1581.774	-1170.6224	1648.0564	-1581.6049	-1271.0632	1699.1553	1098.1366	-1271.6678	1660.181	1099.4164	953.56647	1705.0354	1182.5435	972.95044	1731.9949	1162.0873	1026.5309	1669.2633	-1551.4995	1028.0504	1630.2952	-1551.9182	411.1825	1607.1075	-61.634724	408.79922	1568.1886	-62.430855
545	4.5333333	-1038.2135	214.51637	-1644.1495	-1109.3503	203.99452	-1599.4197	-1063.6233	172.27295	-1625.6022	-1054.1638	262.24719	-1634.9215	-1352.799	235.30693	1004.1387	-1281.318	227.09763	1052.7386	-1322.9283	194.02386	1020.873	-1284.8254	288.08466	1052.3872	814.26709	187.40373	1209.6089	892.63074	179.23535	1178.6018	844.30865	145.63039	1198.3683	860.68982	292.83057	1167.7555	1115.7363	209.58502	-1401.5364	1056.1353	194.16914	-1460.1899	1095.0173	162.34975	-1423.8599	1069.8464	238.76074	-1425.8342	-1204.6198	1686.0511	-1563.062	-1129.1283	1688.2729	-1606.0306	-1173.1409	1724.4172	-1581.9388	-1134.0422	1581.045	-1603.7767	-1239.7146	1699.2949	1119.4863	-1309.234	1698.6146	1071.8601	-1270.4867	1736.3955	1096.9142	-1244.8655	1594.0054	1106.2977	988.92566	1664.3018	1162.3146	955.82709	1702.282	1181.131	922.11792	1662.3434	1214.973	939.82916	1659.4283	1159.9446	999.1214	1668.5178	-1579.3838	1058.9015	1670.1771	-1518.5842	1025.0219	1708.0356	-1551.0653	1059.2683	1672.1511	-1585.3804	410.96985	1606.3496	-23.976265	411.43585	1608.0359	-108.08351	413.44574	1644.0372	-60.883667	444.10364	1605.0378	-61.061241	363.32275	1610.3593	-61.432518																																														-1068.7799	209.99527	-1624.9297	-1074.0614	248.62987	-1624.241	-1321.629	231.7272	1025.3311	-1320.2953	270.43475	1029.9076	847.53986	183.93549	1196.4435	850.8139	222.74884	1194.493	1088.7606	202.60774	-1428.083	1082.8033	240.93971	-1432.1044	-1171.8969	1687.0142	-1581.6874	-1170.6006	1648.0365	-1581.425	-1270.9326	1698.9893	1098.0995	-1271.3975	1660.0116	1099.3346	953.13037	1705.3763	1182.6641	972.60413	1732.3982	1162.3763	1026.5386	1669.2787	-1551.4989	1028.0636	1630.311	-1551.9348	411.1785	1607.1046	-61.636742	408.78937	1568.1859	-62.430321
546	4.5416667	-1038.2045	214.53735	-1644.1689	-1109.3203	203.98547	-1599.3999	-1063.5409	172.76663	-1625.8613	-1054.1808	262.24777	-1634.9182	-1352.8983	235.19275	1004.0856	-1281.3859	227.1328	1052.8153	-1322.8923	193.97946	1020.9136	-1284.7238	288.14288	1052.3328	814.19348	187.70016	1209.5842	892.69574	179.36714	1178.6536	844.29846	145.75154	1198.1759	860.50391	292.91864	1167.4961	1115.7318	209.58517	-1401.5446	1056.1456	194.18727	-1460.1805	1095.0291	162.35988	-1423.8575	1069.8029	238.67194	-1425.7325	-1204.52	1685.9688	-1563.2396	-1129.1707	1688.423	-1606.5455	-1173.1359	1724.4142	-1581.9467	-1134.0471	1581.0521	-1603.7852	-1239.7893	1699.4004	1119.5137	-1309.2677	1698.702	1071.8937	-1270.5001	1736.4125	1096.9175	-1244.9148	1593.9359	1106.1052	988.88794	1664.2488	1162.319	955.82312	1702.272	1181.109	922.21497	1662.3595	1215.0093	939.79407	1659.4275	1159.9374	999.1427	1668.4852	-1579.3461	1058.8979	1670.1736	-1518.6039	1025.0122	1708.0438	-1551.0708	1059.2703	1672.151	-1585.3815	410.95877	1606.3517	-23.985535	411.44489	1608.0244	-108.08755	413.45837	1644.0471	-60.890144	444.16846	1605.0737	-61.05328	363.34827	1610.3618	-61.444756																																														-1068.564	210.0327	-1625.0569	-1073.7725	248.67435	-1624.2229	-1321.6748	231.67363	1025.3618	-1320.4247	270.38501	1029.9299	847.67181	184.14644	1196.3933	851.08148	222.95529	1194.5918	1088.7736	202.61876	-1428.0728	1082.8174	240.95172	-1432.0864	-1171.9314	1687.03	-1581.9694	-1170.6754	1648.0503	-1581.9932	-1270.9662	1699.0869	1098.1451	-1271.453	1660.1111	1099.4271	953.18616	1705.3042	1182.6074	972.64441	1732.285	1162.2502	1026.5403	1669.2593	-1551.4958	1028.0756	1630.292	-1551.9231	411.17639	1607.1005	-61.638123	408.77264	1568.1826	-62.42601
547	4.55	-1038.2458	214.53731	-1644.1586	-1109.3286	203.96516	-1599.3313	-1063.6141	172.76547	-1625.8113	-1054.1702	262.23251	-1634.9054	-1352.8125	235.26205	1004.1489	-1281.3671	227.23274	1052.4166	-1322.9894	193.93741	1020.9692	-1284.6276	288.13553	1052.2946	814.16815	187.47356	1209.5612	892.68518	179.37138	1178.601	844.27704	145.70654	1198.2316	860.6062	292.88498	1167.5208	1115.7379	209.57878	-1401.5492	1056.151	194.18747	-1460.165	1094.9485	162.3188	-1423.8705	1070.001	239.00356	-1425.7676	-1204.5306	1685.9712	-1563.2405	-1129.1306	1688.2704	-1605.9938	-1173.1431	1724.4128	-1581.9435	-1134.0461	1581.0551	-1603.7771	-1239.7112	1699.2826	1119.4725	-1309.4175	1698.9285	1071.9724	-1270.4633	1736.3612	1096.9025	-1244.89	1593.9337	1106.348	988.87939	1664.2522	1162.3274	955.91071	1702.2988	1181.1577	922.8468	1662.171	1215.0741	939.82233	1659.4149	1159.9771	999.14252	1668.4869	-1579.3368	1058.8934	1670.1682	-1518.5979	1025.0203	1708.0388	-1551.0725	1059.2843	1672.1506	-1585.3831	410.97195	1606.3629	-23.990791	411.44586	1608.0305	-108.08679	413.45865	1644.021	-60.890797	444.17377	1605.0796	-61.071648	363.45743	1610.2913	-61.345894																																														-1068.6379	210.01706	-1624.9922	-1073.8492	248.65799	-1624.1425	-1321.6147	231.75592	1025.2256	-1320.2072	270.48596	1029.5847	847.51447	184.03255	1196.4122	850.7934	222.85074	1194.5695	1088.7253	202.60143	-1428.1215	1082.8031	240.93625	-1432.167	-1171.8903	1686.9664	-1581.7482	-1170.5863	1647.9886	-1581.5447	-1271.0852	1699.1232	1098.093	-1271.7362	1660.1486	1099.3392	953.60565	1704.9589	1182.4741	972.9649	1731.889	1161.9562	1026.5361	1669.2577	-1551.4902	1028.0593	1630.2897	-1551.91	411.18408	1607.1094	-61.635559	408.78589	1568.1912	-62.420811
